<?xml version="1.0" encoding="utf-8"?>
<!-- Generator: Adobe Illustrator 13.0.0, SVG Export Plug-In . SVG Version: 6.00 Build 14948)  -->
<!DOCTYPE svg PUBLIC "-//W3C//DTD SVG 1.1//EN" "http://www.w3.org/Graphics/SVG/1.1/DTD/svg11.dtd">
<svg version="1.1" id="Layer_1" xmlns="http://www.w3.org/2000/svg" xmlns:xlink="http://www.w3.org/1999/xlink" x="0px" y="0px"
	 width="250px" height="53.92px" viewBox="0 0 250 53.92" enable-background="new 0 0 250 53.92" xml:space="preserve">
<path fill="#FFFFFF" d="M75.719,38.326c-2.82,2.801-6.343,4.203-10.572,4.203c-4.229,0-7.753-1.402-10.573-4.203
	c-2.819-2.801-4.229-6.229-4.229-10.28c0-4.054,1.409-7.48,4.229-10.282c2.82-2.802,6.344-4.203,10.573-4.203
	c4.229,0,7.752,1.401,10.572,4.203s4.229,6.229,4.229,10.282C79.948,32.098,78.539,35.525,75.719,38.326z M58.777,34.679
	c1.674,1.711,3.797,2.564,6.37,2.564c2.572,0,4.695-0.854,6.37-2.564c1.674-1.708,2.511-3.92,2.511-6.633
	c0-2.715-0.837-4.924-2.511-6.635c-1.674-1.71-3.798-2.563-6.37-2.563c-2.573,0-4.696,0.854-6.37,2.563
	c-1.674,1.711-2.511,3.92-2.511,6.635C56.266,30.759,57.103,32.971,58.777,34.679z M86.45,38.512
	c-2.644-2.677-3.965-6.202-3.965-10.572c0-4.369,1.356-7.858,4.07-10.467c2.712-2.607,5.948-3.912,9.7-3.912
	c3.753,0,6.775,1.586,9.065,4.757V2.883h5.92v39.223h-5.92v-4.229c-2.186,3.102-5.375,4.651-9.567,4.651
	C92.193,42.529,89.092,41.189,86.45,38.512z M88.405,28.179c0,2.696,0.862,4.887,2.59,6.58c1.726,1.691,3.753,2.537,6.08,2.537
	c2.325,0,4.298-0.854,5.919-2.563c1.62-1.71,2.432-3.904,2.432-6.582c0-2.68-0.812-4.916-2.432-6.713
	c-1.621-1.798-3.611-2.697-5.973-2.697s-4.387,0.899-6.08,2.697C89.251,23.235,88.405,25.481,88.405,28.179z M142.534,30.636
	h-22.043c0.142,2.044,1.074,3.691,2.802,4.941c1.727,1.253,3.7,1.878,5.922,1.878c3.522,0,6.201-1.109,8.033-3.331l3.384,3.702
	c-3.032,3.136-6.977,4.703-11.841,4.703c-3.947,0-7.305-1.313-10.07-3.938c-2.768-2.624-4.149-6.149-4.149-10.572
	c0-4.422,1.41-7.938,4.229-10.546c2.817-2.607,6.141-3.912,9.963-3.912s7.075,1.155,9.754,3.463
	c2.678,2.308,4.017,5.489,4.017,9.542V30.636z M120.491,25.983h16.123c0-2.36-0.741-4.176-2.219-5.445
	c-1.482-1.268-3.305-1.902-5.473-1.902c-2.166,0-4.114,0.661-5.841,1.982S120.491,23.729,120.491,25.983z M167.538,33.254
	c0,2.8-1.03,5.047-3.093,6.737c-2.061,1.693-4.678,2.538-7.85,2.538c-2.114,0-4.317-0.381-6.607-1.137
	c-2.291-0.758-4.354-1.876-6.187-3.356l3.49-4.971c2.96,2.292,6.114,3.438,9.463,3.438c1.022,0,1.832-0.205,2.432-0.607
	c0.599-0.406,0.897-0.943,0.897-1.613c0-0.669-0.413-1.286-1.241-1.85c-0.828-0.564-2.027-1.093-3.594-1.587
	c-1.568-0.493-2.769-0.914-3.596-1.269c-0.827-0.353-1.771-0.862-2.828-1.532c-2.149-1.34-3.224-3.321-3.224-5.948
	c0-2.624,1.057-4.765,3.171-6.422c2.115-1.656,4.845-2.484,8.194-2.484c3.347,0,6.693,1.127,10.043,3.383l-2.961,5.286
	c-2.466-1.691-4.923-2.537-7.373-2.537c-2.451,0-3.675,0.67-3.675,2.009c0,0.739,0.387,1.321,1.163,1.744
	c0.775,0.423,2.063,0.916,3.858,1.479c1.798,0.564,3.075,0.997,3.833,1.296c0.758,0.3,1.666,0.767,2.723,1.401
	C166.55,28.451,167.538,30.451,167.538,33.254z M178.109,26.776v15.33h-7.929V2.883h7.929v13.955
	c2.396-2.43,5.084-3.646,8.061-3.646c2.979,0,5.49,1.057,7.533,3.171c2.045,2.115,3.066,4.934,3.066,8.458v17.286h-7.929V26.565
	c0-4.368-1.604-6.555-4.811-6.555c-1.586,0-2.969,0.573-4.149,1.718C178.699,22.874,178.109,24.556,178.109,26.776z M228.962,27.887
	c0,4.123-1.427,7.596-4.281,10.414c-2.855,2.819-6.441,4.229-10.757,4.229c-4.318,0-7.902-1.409-10.759-4.229
	c-2.853-2.818-4.28-6.291-4.28-10.414c0-4.122,1.428-7.602,4.28-10.44c2.856-2.836,6.44-4.254,10.759-4.254
	c4.315,0,7.901,1.418,10.757,4.254C227.535,20.285,228.962,23.765,228.962,27.887z M206.865,27.887c0,2.326,0.662,4.221,1.983,5.683
	c1.321,1.463,3.013,2.192,5.075,2.192c2.06,0,3.751-0.729,5.073-2.192c1.321-1.462,1.983-3.356,1.983-5.683s-0.662-4.229-1.983-5.71
	c-1.322-1.479-3.014-2.22-5.073-2.22c-2.063,0-3.754,0.74-5.075,2.22C207.527,23.657,206.865,25.561,206.865,27.887z
	 M240.433,19.376v12.74c0,1.092,0.281,1.946,0.845,2.563c0.564,0.618,1.234,0.925,2.009,0.925c1.479,0,2.731-0.669,3.755-2.007
	l2.959,5.55c-2.468,2.254-5.066,3.383-7.796,3.383c-2.732,0-5.041-0.897-6.926-2.695c-1.887-1.798-2.829-4.246-2.829-7.348v-13.11
	h-3.328v-5.708h3.328V5.156h7.983v8.511h6.872v5.708H240.433z M11.981,36.497V17.424c0.293-0.105,0.58-0.215,0.86-0.348L33.46,41.08
	c-0.559,1.169-0.898,2.468-0.898,3.854c0,4.961,4.023,8.986,8.988,8.986c4.964,0,8.986-4.025,8.986-8.986
	c0-3.909-2.507-7.197-5.992-8.437V17.424c3.485-1.237,5.992-4.528,5.992-8.435c0-4.962-4.022-8.987-8.986-8.987
	c-4.964,0-8.988,4.024-8.988,8.987c0,3.91,2.508,7.198,5.992,8.435v19.073c-0.292,0.104-0.579,0.217-0.857,0.349L17.075,12.839
	c0.559-1.172,0.898-2.47,0.898-3.853C17.973,4.024,13.952,0,8.987,0C4.022,0,0,4.024,0,8.987c0,3.91,2.506,7.199,5.992,8.435v19.076
	C2.506,37.736,0,41.024,0,44.934c0,4.961,4.022,8.986,8.987,8.986c4.964,0,8.986-4.025,8.986-8.986
	C17.973,41.024,15.467,37.736,11.981,36.497z"/>
</svg>
